<svg version="1.1" id="Layer_1" xmlns="http://www.w3.org/2000/svg" xmlns:xlink="http://www.w3.org/1999/xlink" x="0px" y="0px"
	 width="100%" viewBox="0 0 500 500" enable-background="new 0 0 500 500" xml:space="preserve">
<path fill="#FEFEFE" opacity="1.000000" stroke="none" 
	d="
M228.000000,501.000000 
	C152.000015,501.000000 76.500038,501.000000 1.000041,501.000000 
	C1.000027,334.333405 1.000027,167.666779 1.000013,1.000130 
	C167.666565,1.000087 334.333130,1.000087 500.999756,1.000043 
	C500.999847,167.666534 500.999847,334.333069 500.999939,500.999817 
	C410.166656,501.000000 319.333344,501.000000 228.000000,501.000000 
M360.500061,148.952896 
	C354.335999,148.953094 348.166351,148.808090 342.011292,149.043427 
	C340.203735,149.112534 338.037506,149.808136 336.711151,150.980713 
	C309.010651,175.469849 281.397430,200.057816 253.819717,224.685333 
	C252.661987,225.719208 251.265884,227.310715 251.243835,228.663025 
	C251.044510,240.889771 251.127151,253.121094 251.127151,266.641785 
	C280.478760,240.808014 308.833923,215.851242 338.341187,189.880463 
	C338.341187,227.628418 338.341187,263.678741 338.341187,299.815887 
	C339.677002,300.017334 340.477509,300.244110 341.277710,300.243164 
	C361.934753,300.218811 382.593872,300.318512 403.247314,300.024506 
	C408.517120,299.949463 413.879089,299.057556 419.010773,297.783844 
	C447.043915,290.826019 466.846588,274.193268 474.715729,246.095474 
	C482.369537,218.766693 477.274384,193.454742 457.163940,172.445312 
	C441.820404,156.415863 422.230194,149.728867 400.480743,149.044067 
	C387.499084,148.635315 374.494385,148.958649 360.500061,148.952896 
M63.932034,188.459976 
	C70.546951,181.161133 78.732674,176.598526 88.426132,175.068329 
	C106.526405,172.210983 121.134369,179.780243 134.237946,191.529755 
	C141.455658,183.204025 148.301910,175.306763 155.065430,167.504959 
	C154.791565,166.907883 154.714218,166.559097 154.507156,166.325089 
	C154.067749,165.828491 153.563248,165.389069 153.081177,164.930679 
	C136.373489,149.043533 116.087662,143.357666 93.542488,143.788910 
	C57.800247,144.472595 28.865335,166.853867 19.459841,201.293915 
	C9.175932,238.950455 26.676394,278.581970 62.356335,293.448425 
	C92.994102,306.214020 122.684654,303.491364 148.599289,280.439545 
	C180.595230,251.978226 212.486420,223.397751 244.665833,195.145508 
	C249.476746,190.921722 251.691986,186.747864 251.283005,180.317993 
	C250.723450,171.520584 251.156876,162.660843 251.126541,153.827957 
	C251.122406,152.626190 250.897644,151.425171 250.715057,149.636063 
	C248.913818,151.128143 247.623077,152.134186 246.401733,153.218414 
	C226.090973,171.249313 205.807938,189.311493 185.479355,207.322281 
	C166.523178,224.117126 147.807312,241.199509 128.454285,257.525421 
	C110.661827,272.534821 86.668327,273.668427 70.224953,261.326874 
	C48.500359,245.021484 45.350872,211.477478 63.932034,188.459976 
M208.977234,333.200500 
	C208.591537,334.245941 208.205841,335.291382 207.253311,337.873260 
	C205.341171,330.381866 203.896988,324.307983 202.179626,318.312317 
	C201.790497,316.953796 200.452820,315.866974 199.551758,314.655090 
	C199.063110,314.932892 198.574448,315.210693 198.085800,315.488464 
	C198.085800,326.619263 198.026306,337.750793 198.166183,348.879822 
	C198.182434,350.172577 199.303406,351.451447 199.912216,352.736755 
	C200.441055,351.371399 201.372131,350.021729 201.425949,348.637878 
	C201.613907,343.805237 201.498718,338.960754 201.498718,334.120789 
	C201.972931,334.062286 202.447128,334.003784 202.921341,333.945282 
	C204.207382,338.724579 205.493439,343.503876 207.139526,349.621216 
	C209.211395,343.382996 210.762924,338.711487 212.314453,334.039978 
	C213.491455,339.393311 213.400299,344.601410 213.571106,349.800903 
	C213.603882,350.798676 214.666428,351.762665 215.253922,352.742218 
	C215.824524,351.912384 216.884155,351.087097 216.891998,350.251953 
	C217.000870,338.634705 216.965714,327.016113 216.965714,315.397827 
	C216.480469,315.130981 215.995239,314.864136 215.509995,314.597260 
	C214.620422,315.687653 213.288651,316.646942 212.919632,317.891663 
	C211.502304,322.672241 210.393570,327.544312 208.977234,333.200500 
M387.988586,316.158020 
	C383.881592,315.638458 379.774597,315.118927 375.487366,314.576599 
	C375.487366,327.929260 375.487366,340.126221 375.487366,352.853760 
	C377.717682,352.853760 379.664948,352.872559 381.611786,352.850403 
	C388.837402,352.768158 391.056152,350.535400 391.074768,343.296234 
	C391.091797,336.660461 391.285950,330.014557 390.964172,323.394409 
	C390.853699,321.122223 389.419556,318.914368 387.988586,316.158020 
M32.013775,339.483459 
	C32.013775,332.506592 32.013775,325.529755 32.013775,318.524384 
	C34.846943,318.524384 37.260143,318.524384 40.041519,318.524384 
	C40.041519,320.613556 39.860489,322.453125 40.117760,324.229218 
	C40.246696,325.119354 41.174297,325.893799 41.740692,326.720551 
	C42.398022,325.969910 43.488773,325.299683 43.645195,324.456146 
	C45.101460,316.603149 43.725941,314.994049 35.847778,314.996857 
	C34.848072,314.997223 33.843506,315.061768 32.849575,314.986267 
	C29.954983,314.766388 28.502024,315.919983 28.520008,318.972198 
	C28.578907,328.968903 28.435562,338.968781 28.679289,348.959900 
	C28.710678,350.246552 30.402328,352.357483 31.602978,352.578888 
	C34.502785,353.113800 37.613304,353.058655 40.542530,352.610992 
	C41.720646,352.430969 43.270988,350.740631 43.550232,349.491455 
	C44.047215,347.268188 43.834358,344.846527 43.639099,342.531403 
	C43.577274,341.798401 42.625725,341.140411 42.081341,340.448090 
	C41.401619,341.160889 40.227940,341.815460 40.135773,342.597504 
	C39.870529,344.848083 40.042171,347.150146 40.042171,349.526245 
	C37.109444,349.526245 34.795151,349.526245 32.013775,349.526245 
	C32.013775,346.429932 32.013775,343.455566 32.013775,339.483459 
M52.290806,348.912109 
	C52.290806,343.630371 52.290806,338.348663 52.290806,332.632172 
	C54.682457,332.513885 56.609203,332.418579 59.060627,332.297333 
	C59.060627,335.347076 59.060299,338.145050 59.060711,340.943024 
	C59.061153,343.937927 58.914238,346.944458 59.147697,349.921143 
	C59.223946,350.893341 60.291351,351.787811 60.905457,352.717865 
	C61.406269,351.836823 62.295109,350.974731 62.339172,350.071411 
	C62.509224,346.585602 62.410038,343.086639 62.410130,339.592560 
	C62.410393,329.425079 62.410194,329.425079 52.290646,329.419312 
	C52.290646,326.676392 52.291286,323.897980 52.290504,321.119568 
	C52.288986,315.735901 52.288658,315.735901 48.883240,315.377533 
	C48.883240,327.037659 48.849701,338.656464 48.954914,350.273987 
	C48.962326,351.092316 49.993641,351.901428 50.548832,352.714813 
	C51.129307,351.737946 51.709782,350.761078 52.290806,348.912109 
M115.811165,335.717957 
	C115.751259,328.629242 115.726715,328.656860 108.836800,329.385376 
	C106.777412,329.603149 104.675529,329.419006 101.990417,329.419006 
	C101.990417,339.436401 101.948410,349.347198 102.076263,359.255768 
	C102.085709,359.987854 103.318100,360.704163 103.981941,361.427826 
	C104.543610,360.597351 105.473579,359.815399 105.590797,358.926331 
	C105.840111,357.035309 105.666946,355.088562 105.666946,353.238281 
	C115.629959,352.262115 115.810097,352.062622 115.811310,342.643341 
	C115.811562,340.649902 115.811302,338.656464 115.811165,335.717957 
M169.791809,339.577789 
	C169.791718,342.075500 170.002670,344.595184 169.744995,347.066040 
	C169.292328,351.406799 170.982285,353.322632 175.375290,352.847290 
	C176.692383,352.704773 178.037109,352.815460 179.369186,352.814392 
	C183.385254,352.811188 183.303207,350.002289 183.038147,347.244751 
	C182.984512,346.686859 182.144028,345.998230 181.521866,345.778137 
	C181.143845,345.644379 180.052689,346.255951 180.023682,346.596008 
	C179.568634,351.929535 176.190308,349.441681 173.406250,349.438660 
	C173.406250,346.807953 173.406250,344.555817 173.406250,341.994995 
	C175.062988,341.894226 176.541641,341.615753 177.980423,341.753448 
	C181.727203,342.112030 183.766769,340.966064 183.151840,336.785461 
	C182.935959,335.317841 183.438934,333.687134 183.003021,332.326538 
	C182.619476,331.129395 181.568832,329.578705 180.494461,329.261108 
	C172.801605,326.987152 169.792236,329.292206 169.792130,337.137604 
	C169.792114,337.637146 169.792007,338.136688 169.791809,339.577789 
M254.093414,347.105804 
	C254.091614,342.273682 254.337494,337.420166 253.923737,332.623566 
	C253.812393,331.332794 251.794968,329.340485 250.480316,329.191711 
	C247.309662,328.832886 244.037262,329.373199 240.293198,329.579132 
	C240.293198,336.097870 240.188156,342.563019 240.382721,349.019135 
	C240.421143,350.294495 241.612579,351.535126 242.272293,352.791779 
	C242.832626,351.436096 243.826828,350.096100 243.876389,348.721985 
	C244.066452,343.452240 243.953323,338.171570 243.953323,332.859497 
	C246.503830,332.859497 248.368729,332.859497 250.540375,332.859497 
	C250.540375,338.928558 250.471405,344.577667 250.613129,350.221436 
	C250.634903,351.089142 251.626450,351.932495 252.169495,352.787109 
	C252.810013,352.021118 253.644730,351.340210 254.029404,350.462128 
	C254.335754,349.762848 254.092728,348.822906 254.093414,347.105804 
M468.561920,350.791992 
	C472.542542,351.592926 476.523163,352.393860 480.916168,353.277802 
	C481.035034,351.011566 481.176086,349.548859 481.178192,348.085968 
	C481.193085,337.767487 481.227417,327.448334 481.077606,317.131958 
	C481.066437,316.363525 479.670380,315.615173 478.918121,314.857452 
	C478.564423,315.083710 478.210754,315.309937 477.857056,315.536194 
	C477.857056,319.966980 477.857056,324.397766 477.857056,329.132202 
	C475.933716,329.132202 474.440887,329.007690 472.976135,329.157593 
	C469.713806,329.491425 467.728882,331.241913 467.766815,334.662994 
	C467.823853,339.807037 468.020599,344.949493 468.561920,350.791992 
M152.416016,334.845154 
	C152.273636,332.157318 153.270325,328.736023 148.555908,329.069061 
	C145.467926,329.287231 142.373276,329.411224 138.841339,329.601074 
	C138.841339,336.280792 138.770432,343.081055 138.921066,349.876434 
	C138.942596,350.847443 140.036072,351.794739 140.633423,352.752991 
	C141.180466,351.733856 142.171646,350.727142 142.200562,349.693512 
	C142.356781,344.109497 142.274567,338.518829 142.274567,332.657104 
	C144.842697,332.657104 146.738266,332.657104 149.073395,332.657104 
	C149.073395,338.635895 149.006241,344.432068 149.147461,350.223145 
	C149.168091,351.069031 150.182098,351.890717 150.736450,352.723602 
	C151.295258,351.899048 152.310226,351.089294 152.337509,350.247528 
	C152.493713,345.427673 152.415222,340.600220 152.416016,334.845154 
M272.536896,337.601746 
	C272.536591,336.105927 272.756348,334.566772 272.472809,333.126740 
	C272.201141,331.746796 271.406921,330.469757 270.842377,329.147491 
	C270.266296,330.455170 269.239410,331.747101 269.193024,333.073273 
	C269.003693,338.488403 269.114136,343.914062 269.114136,349.295593 
	C266.481232,349.295593 264.587097,349.295593 262.304993,349.295593 
	C262.304993,343.134857 262.372803,337.342285 262.228699,331.554962 
	C262.208099,330.727783 261.162079,329.926117 260.590637,329.112640 
	C260.019409,329.932312 258.989349,330.733032 258.954590,331.574860 
	C258.783295,335.722900 258.875732,339.881805 258.875397,344.036896 
	C258.874786,352.430176 258.874176,352.398163 267.139740,352.213593 
	C268.722656,352.178223 270.313629,352.505310 272.536804,352.729218 
	C272.536804,347.769562 272.536804,343.170441 272.536896,337.601746 
M317.048279,333.731720 
	C316.420532,328.999268 314.815857,328.078491 307.437347,329.230103 
	C306.060425,329.444977 304.011047,331.438446 303.917542,332.730316 
	C303.522491,338.186432 303.555634,343.699615 303.894501,349.163300 
	C303.972839,350.426392 305.688354,352.278961 306.978943,352.621063 
	C309.152802,353.197235 311.747162,353.276947 313.858673,352.604584 
	C315.206238,352.175446 316.245239,350.123627 316.931519,348.580902 
	C317.221619,347.928802 316.249512,346.715240 315.851074,345.756866 
	C314.808899,346.914276 313.766724,348.071716 312.399475,349.590149 
	C311.311554,349.590149 309.548828,349.590149 307.467834,349.590149 
	C307.467834,346.959351 307.467834,344.593018 307.467834,342.259033 
	C317.045319,340.708008 317.045319,340.708008 317.048279,333.731720 
M350.845947,352.819611 
	C352.845795,352.816284 355.025208,353.302612 356.789062,352.655731 
	C358.217407,352.131927 359.457092,350.391663 360.160706,348.898865 
	C360.497131,348.185120 359.396149,346.793915 358.946228,345.709534 
	C357.903259,346.892761 356.860291,348.075989 355.562164,349.548706 
	C354.389160,349.548706 352.645050,349.548706 350.734619,349.548706 
	C350.734619,346.858948 350.734619,344.479279 350.734619,341.708557 
	C353.046112,341.708557 355.031494,341.847321 356.983673,341.652740 
	C358.034607,341.548004 359.877014,340.931580 359.911346,340.443848 
	C360.143158,337.151917 360.427460,333.727631 359.679962,330.587830 
	C359.463104,329.677124 355.940979,329.502930 353.912598,329.098999 
	C353.111206,328.939423 352.248260,329.120300 351.418488,329.066528 
	C348.273712,328.862640 346.837921,330.193604 346.929901,333.459137 
	C347.070679,338.454865 346.739288,343.474243 347.104492,348.447113 
	C347.215118,349.953796 348.965668,351.339996 350.845947,352.819611 
M224.996490,352.774292 
	C227.645004,352.748718 230.437775,353.210785 232.880096,352.488251 
	C234.069382,352.136383 234.780869,349.631622 235.336655,347.976501 
	C235.523895,347.418915 234.563690,346.475952 234.127914,345.709137 
	C233.307755,346.846100 232.500504,347.992828 231.657394,349.112549 
	C231.469788,349.361694 231.155853,349.515747 230.674667,349.887939 
	C229.273956,349.808380 227.665314,349.717041 225.775757,349.609711 
	C225.775757,346.969788 225.775757,344.592682 225.775757,341.713348 
	C228.021484,341.713348 229.993683,341.893005 231.910950,341.646118 
	C233.065720,341.497406 234.710983,340.979675 235.149582,340.122894 
	C238.082626,334.393097 234.694885,329.046783 228.330582,329.069611 
	C227.501740,329.072601 226.442078,328.747406 225.889374,329.138947 
	C224.494308,330.127289 222.329803,331.367737 222.241135,332.631226 
	C221.847504,338.239319 221.972412,343.894623 222.171249,349.523651 
	C222.207977,350.563049 223.452179,351.559784 224.996490,352.774292 
M133.750305,339.917877 
	C133.790985,338.255249 133.689026,336.574341 133.899414,334.933472 
	C134.500900,330.242279 132.415634,328.465790 127.888016,329.051025 
	C126.905518,329.178040 125.889595,329.122314 124.894478,329.061859 
	C121.690445,328.867188 120.400909,330.353088 120.484245,333.537903 
	C120.614838,338.528656 120.605896,343.527435 120.486504,348.518738 
	C120.416191,351.457977 121.605194,352.880615 124.561127,352.826385 
	C126.391678,352.792755 128.223404,352.816498 130.054565,352.823578 
	C134.031204,352.838959 134.093750,350.112976 133.779831,347.303833 
	C133.713867,346.713593 132.914597,346.001556 132.291275,345.754822 
	C131.925064,345.609833 130.797485,346.228912 130.763992,346.576721 
	C130.271957,351.684143 126.950439,349.577057 124.338501,349.539795 
	C124.338501,346.779236 124.338501,344.381958 124.338501,342.299042 
	C127.633385,341.726959 130.515686,341.226501 133.750305,339.917877 
M77.920998,352.503662 
	C80.880196,353.476593 80.843704,351.496796 80.842705,349.543915 
	C80.840492,345.230713 80.843628,340.917542 80.842377,336.604340 
	C80.840172,328.970154 80.839493,328.970490 73.084908,329.066895 
	C72.421417,329.075134 71.521347,328.799194 71.137367,329.128662 
	C69.838707,330.242981 68.416611,331.415710 67.674225,332.885559 
	C67.333405,333.560394 68.464073,334.978485 68.927460,336.059509 
	C70.003334,334.874207 71.079216,333.688904 72.509727,332.112915 
	C73.662796,332.191223 75.398804,332.309113 77.260536,332.435547 
	C77.260536,334.753418 77.260536,336.645203 77.260536,338.894958 
	C75.683258,338.894958 74.364044,339.043945 73.089615,338.868195 
	C68.501892,338.235565 66.933327,340.102722 67.072060,344.729309 
	C67.322586,353.083649 67.088562,353.087006 75.666397,352.180664 
	C76.153152,352.129242 76.654671,352.217651 77.920998,352.503662 
M290.701111,349.706848 
	C290.277496,348.542419 289.953644,347.326660 289.391357,346.233551 
	C289.074554,345.617676 288.437286,344.979065 287.807220,344.775757 
	C287.364288,344.632812 286.457581,345.047180 286.157501,345.485962 
	C284.338806,348.145447 286.622131,352.555054 289.947052,352.808044 
	C291.598969,352.933746 293.268585,352.811493 294.929688,352.835175 
	C297.836823,352.876678 298.715790,351.454285 299.122345,348.580475 
	C299.917572,342.958832 295.317139,341.432495 292.502502,338.416962 
	C291.217194,337.039948 290.652588,334.990234 289.761139,333.245605 
	C291.505371,332.854401 293.249603,332.463165 294.221985,332.245056 
	C295.619019,334.334564 296.442963,335.566925 297.266907,336.799286 
	C297.774658,336.456238 298.710938,336.121796 298.718018,335.768707 
	C298.753815,333.984039 298.772339,330.695984 298.391968,330.639008 
	C294.669189,330.081512 290.865753,330.062531 287.085266,329.890411 
	C287.213135,332.792847 286.542847,336.077759 287.697906,338.487915 
	C288.807404,340.802979 292.001953,342.033325 293.895874,344.093719 
	C294.851929,345.133789 295.338074,346.979584 295.248627,348.411865 
	C295.215637,348.940338 292.919891,349.327484 290.701111,349.706848 
M449.392365,329.971649 
	C449.317444,336.448059 449.152283,342.925903 449.252075,349.399597 
	C449.269684,350.543945 450.392761,351.671234 451.005341,352.806396 
	C451.632935,351.697144 452.764893,350.604797 452.802795,349.475739 
	C452.990112,343.894745 452.888092,338.304047 452.888092,332.736481 
	C455.359009,332.736481 457.110809,332.736481 459.321686,332.736481 
	C459.321686,338.644623 459.235199,344.265015 459.402679,349.877838 
	C459.432281,350.869476 460.521851,351.829468 461.121948,352.804047 
	C461.751740,351.862518 462.897339,350.936646 462.926483,349.976837 
	C463.098083,344.329987 462.924835,338.673462 463.040100,333.023743 
	C463.110474,329.573120 461.372467,328.766510 458.327606,329.032166 
	C455.570160,329.272766 452.786285,329.210266 449.392365,329.971649 
M409.857422,339.529816 
	C409.856750,337.196747 410.050812,334.840393 409.775696,332.540131 
	C409.631805,331.336945 408.663849,330.232239 408.068024,329.083069 
	C407.441589,330.192047 406.311523,331.284241 406.273895,332.412872 
	C406.087311,338.014801 406.188751,343.626343 406.188751,349.365509 
	C403.725677,349.365509 401.972473,349.365509 399.735352,349.365509 
	C399.735352,343.322113 399.824036,337.518677 399.642365,331.723694 
	C399.614227,330.825562 398.348572,329.966248 397.655151,329.088989 
	C397.111237,329.947296 396.115509,330.795532 396.096130,331.665527 
	C395.962494,337.661682 395.823853,343.676147 396.216919,349.649841 
	C396.293793,350.818390 398.601990,352.606628 400.027191,352.761200 
	C403.041107,353.087952 406.151550,352.524658 409.857391,352.285431 
	C409.857391,348.406769 409.857391,344.459747 409.857422,339.529816 
M435.563477,338.914948 
	C432.189423,338.509369 430.539612,339.818665 430.852356,343.392548 
	C431.025787,345.374390 430.918060,347.384186 430.881165,349.380341 
	C430.827148,352.300171 432.381897,353.084656 435.040771,352.825439 
	C437.938293,352.542938 440.857758,352.485199 444.300781,352.300964 
	C444.300781,345.605408 444.414459,338.831848 444.177124,332.070648 
	C444.141876,331.067017 442.566833,329.468933 441.503693,329.281219 
	C439.082275,328.853638 436.393036,328.641235 434.096802,329.312836 
	C432.797516,329.692902 431.837128,331.903870 431.190460,333.481323 
	C430.961395,334.040131 432.114014,335.165344 432.635834,336.032013 
	C433.505402,334.851715 434.374969,333.671448 435.254211,332.478027 
	C436.977142,332.478027 438.867523,332.478027 440.697845,332.478027 
	C440.697845,334.790161 440.697845,336.695984 440.697845,338.914551 
	C439.095215,338.914551 437.787659,338.914551 435.563477,338.914948 
M421.318695,329.356537 
	C419.251007,329.356537 417.183350,329.356537 414.704376,329.356537 
	C414.704376,336.359192 414.633820,343.136139 414.784271,349.908203 
	C414.805634,350.868835 415.901794,351.805573 416.500488,352.753387 
	C417.042847,351.734100 418.025391,350.727081 418.054169,349.693542 
	C418.209229,344.121826 418.127563,338.543579 418.127563,332.711517 
	C420.146851,332.581085 421.572998,332.488953 422.118317,332.453735 
	C423.676636,334.356598 424.746704,335.663208 425.816742,336.969818 
	C426.183655,334.892700 427.023132,332.732941 426.681427,330.779785 
	C426.547546,330.014557 423.765411,329.712616 421.318695,329.356537 
M162.239090,333.077667 
	C163.473007,332.242371 164.706940,331.407043 165.940872,330.571747 
	C164.689392,329.781555 163.437912,328.991364 162.009613,328.089508 
	C162.009613,327.253510 162.251984,326.182068 161.949356,325.296967 
	C161.554916,324.143341 160.728302,323.137421 160.087646,322.067963 
	C159.591309,323.112946 159.064560,324.144775 158.605362,325.205811 
	C157.804428,327.056488 157.045120,328.925171 156.713394,329.719971 
	C157.452866,333.065033 158.319183,335.630798 158.526413,338.248718 
	C158.813843,341.879730 158.382370,345.571686 158.733139,349.191559 
	C158.854385,350.442657 160.188538,352.202576 161.337738,352.567322 
	C162.736069,353.011169 164.524063,352.227417 166.143509,351.974701 
	C166.095444,351.493317 166.047363,351.011902 165.999298,350.530518 
	C164.709320,350.051025 163.419327,349.571533 162.038864,349.058411 
	C162.038864,343.899231 162.038864,338.922821 162.239090,333.077667 
M334.495148,335.138184 
	C334.407745,328.231201 334.252716,328.162720 321.986481,329.826447 
	C321.986481,336.374664 321.919739,342.979919 322.053955,349.581085 
	C322.075653,350.647675 322.990906,351.696136 323.493164,352.752960 
	C324.160614,351.686127 325.356964,350.642670 325.405273,349.548462 
	C325.631805,344.420746 325.529083,339.278900 325.589355,334.142639 
	C325.594513,333.703979 325.933319,333.269257 326.200867,332.633850 
	C327.624176,332.633850 329.041718,332.633850 330.408569,332.633850 
	C331.560333,336.934631 331.560333,336.934631 334.495148,335.138184 
M89.143051,344.430267 
	C89.143051,340.630219 89.143051,336.830170 89.143051,332.651825 
	C91.148865,332.537445 92.730499,332.447266 94.304596,332.357483 
	C94.568039,333.126251 94.670044,333.610931 94.891571,334.032928 
	C95.416847,335.033569 95.998810,336.004456 96.557861,336.987366 
	C97.094994,335.982819 97.952141,335.026520 98.112167,333.965118 
	C98.709023,330.006165 97.022499,328.479095 92.962372,329.195038 
	C90.794540,329.577332 88.503860,329.262909 85.867416,329.262909 
	C85.867416,334.957214 85.721581,340.257538 85.932922,345.543610 
	C86.029259,347.953156 86.830956,350.334534 87.312714,352.728668 
	C87.922829,350.282684 88.532944,347.836700 89.143051,344.430267 
M341.396149,329.436401 
	C338.509338,328.363983 338.420349,330.241730 338.422455,332.242798 
	C338.428528,338.030640 338.347595,343.820465 338.493927,349.604584 
	C338.520721,350.664307 339.455231,351.701080 339.970764,352.748444 
	C340.629364,351.679932 341.833588,350.623199 341.856934,349.540985 
	C341.995850,343.097992 341.861847,336.649078 341.396149,329.436401 
M277.665283,348.931519 
	C278.286163,350.200165 278.907074,351.468781 279.527954,352.737427 
	C280.035400,351.522217 280.947052,350.318176 280.981049,349.089844 
	C281.137543,343.435608 281.130066,337.772308 280.973328,332.118011 
	C280.945496,331.114807 279.931427,330.138947 279.372803,329.150452 
	C278.803955,330.120331 277.773407,331.076080 277.743195,332.062439 
	C277.580414,337.383209 277.665741,342.711609 277.665283,348.931519 
z"/>
<path fill="#ED6A39" opacity="1.000000" stroke="none" 
	d="
M361.000061,148.952881 
	C374.494385,148.958649 387.499084,148.635315 400.480743,149.044067 
	C422.230194,149.728867 441.820404,156.415863 457.163940,172.445312 
	C477.274384,193.454742 482.369537,218.766693 474.715729,246.095474 
	C466.846588,274.193268 447.043915,290.826019 419.010773,297.783844 
	C413.879089,299.057556 408.517120,299.949463 403.247314,300.024506 
	C382.593872,300.318512 361.934753,300.218811 341.277710,300.243164 
	C340.477509,300.244110 339.677002,300.017334 338.341187,299.815887 
	C338.341187,263.678741 338.341187,227.628418 338.341187,189.880463 
	C308.833923,215.851242 280.478760,240.808014 251.127151,266.641785 
	C251.127151,253.121094 251.044510,240.889771 251.243835,228.663025 
	C251.265884,227.310715 252.661987,225.719208 253.819717,224.685333 
	C281.397430,200.057816 309.010651,175.469849 336.711151,150.980713 
	C338.037506,149.808136 340.203735,149.112534 342.011292,149.043427 
	C348.166351,148.808090 354.335999,148.953094 361.000061,148.952881 
M442.020172,214.684174 
	C439.721436,202.457336 433.645416,192.724075 423.046600,185.989578 
	C407.061432,175.832626 389.368011,179.777603 372.092834,179.088776 
	C372.092834,209.749542 372.092834,239.657120 372.092834,270.730316 
	C385.140961,270.038147 398.134827,270.770172 410.528381,268.384216 
	C433.604187,263.941681 446.702484,240.873947 442.020172,214.684174 
z"/>
<path fill="#030303" opacity="1.000000" stroke="none" 
	d="
M63.681778,188.716248 
	C45.350872,211.477478 48.500359,245.021484 70.224953,261.326874 
	C86.668327,273.668427 110.661827,272.534821 128.454285,257.525421 
	C147.807312,241.199509 166.523178,224.117126 185.479355,207.322281 
	C205.807938,189.311493 226.090973,171.249313 246.401733,153.218414 
	C247.623077,152.134186 248.913818,151.128143 250.715057,149.636063 
	C250.897644,151.425171 251.122406,152.626190 251.126541,153.827957 
	C251.156876,162.660843 250.723450,171.520584 251.283005,180.317993 
	C251.691986,186.747864 249.476746,190.921722 244.665833,195.145508 
	C212.486420,223.397751 180.595230,251.978226 148.599289,280.439545 
	C122.684654,303.491364 92.994102,306.214020 62.356335,293.448425 
	C26.676394,278.581970 9.175932,238.950455 19.459841,201.293915 
	C28.865335,166.853867 57.800247,144.472595 93.542488,143.788910 
	C116.087662,143.357666 136.373489,149.043533 153.081177,164.930679 
	C153.563248,165.389069 154.067749,165.828491 154.507156,166.325089 
	C154.714218,166.559097 154.791565,166.907883 155.065430,167.504959 
	C148.301910,175.306763 141.455658,183.204025 134.237946,191.529755 
	C121.134369,179.780243 106.526405,172.210983 88.426132,175.068329 
	C78.732674,176.598526 70.546951,181.161133 63.681778,188.716248 
z"/>

<path fill="#FFFEFE" opacity="1.000000" stroke="none" 
	d="
M442.077332,215.111801 
	C446.702484,240.873947 433.604187,263.941681 410.528381,268.384216 
	C398.134827,270.770172 385.140961,270.038147 372.092834,270.730316 
	C372.092834,239.657120 372.092834,209.749542 372.092834,179.088776 
	C389.368011,179.777603 407.061432,175.832626 423.046600,185.989578 
	C433.645416,192.724075 439.721436,202.457336 442.077332,215.111801 
z"/>
</svg>